<svg xmlns="http://www.w3.org/2000/svg" xmlns:xlink="http://www.w3.org/1999/xlink">
    <symbol id='kitchen' viewBox="0 0 48 48">
        <path d="M8.59937 47.9999C8.3313 47.9999 8.0603 47.9234 7.82043 47.7637C6.48596 46.8738 5.68945 45.368 5.68945 43.7347C5.68945 42.1017 6.48596 40.5955 7.82043 39.706C8.37891 39.3336 8.69934 38.7348 8.69934 38.0635C8.69934 37.3923 8.37891 36.7939 7.82043 36.4214C7.17444 35.9908 6.99976 35.1177 7.43042 34.4717C7.86145 33.8254 8.7345 33.6511 9.38049 34.0817C10.7146 34.9712 11.5115 36.4599 11.5115 38.0635C11.5115 39.6675 10.7146 41.1562 9.38049 42.0457C8.82166 42.4181 8.50159 43.0337 8.50159 43.735C8.50159 44.436 8.82166 45.0516 9.38049 45.424C10.0265 45.8547 10.2012 46.7277 9.77051 47.3737C9.49951 47.7802 9.05347 47.9999 8.59937 47.9999Z"/>
        <path d="M18.4417 47.9999C18.1736 47.9999 17.9026 47.9234 17.6631 47.7637C16.3286 46.8738 15.5317 45.368 15.5317 43.7347C15.5317 42.1017 16.3286 40.5955 17.6631 39.706C18.2216 39.3336 18.5416 38.7348 18.5416 38.0635C18.5416 37.3923 18.2216 36.7939 17.6631 36.4214C17.0167 35.9908 16.842 35.1177 17.2731 34.4717C17.7037 33.8254 18.5768 33.6511 19.2228 34.0817C20.5573 34.9712 21.3538 36.4599 21.3538 38.0635C21.3538 39.6675 20.5573 41.1562 19.2228 42.0457C18.6643 42.4181 18.3439 43.0337 18.3439 43.735C18.3439 44.436 18.6643 45.0516 19.2228 45.424C19.8688 45.8547 20.0435 46.7277 19.6128 47.3737C19.3418 47.7802 18.8958 47.9999 18.4417 47.9999Z"/>
        <path d="M38.1266 47.9999C37.8585 47.9999 37.5875 47.9234 37.348 47.7637C36.0135 46.8738 35.2167 45.368 35.2167 43.7347C35.2167 42.1017 36.0135 40.5955 37.348 39.706C37.9065 39.3336 38.2266 38.7348 38.2266 38.0635C38.2266 37.3923 37.9065 36.7939 37.348 36.4214C36.7017 35.9908 36.527 35.1177 36.9576 34.4717C37.3887 33.8254 38.2617 33.6511 38.9077 34.0817C40.2422 34.9712 41.0387 36.4599 41.0387 38.0635C41.0387 39.6675 40.2422 41.1562 38.9077 42.0457C38.3492 42.4181 38.0288 43.0337 38.0288 43.735C38.0288 44.436 38.3489 45.0516 38.9077 45.424C39.5537 45.8547 39.7284 46.7277 39.2977 47.3737C39.0267 47.7802 38.5807 47.9999 38.1266 47.9999Z"/>
        <path d="M28.2839 47.9999C28.0162 47.9999 27.7452 47.9234 27.5054 47.7637C26.1709 46.8738 25.3744 45.368 25.3744 43.7347C25.3744 42.1017 26.1709 40.5955 27.5054 39.706C28.0638 39.3336 28.3843 38.7348 28.3843 38.0635C28.3843 37.3923 28.0638 36.7939 27.5054 36.4214C26.8594 35.9908 26.6847 35.1177 27.1154 34.4717C27.546 33.8254 28.4194 33.6511 29.0651 34.0817C30.3995 34.9712 31.1964 36.4599 31.1964 38.0635C31.1964 39.6675 30.3995 41.1562 29.0651 42.0457C28.5066 42.4181 28.1862 43.0337 28.1862 43.735C28.1862 44.436 28.5066 45.0516 29.0651 45.424C29.7114 45.8547 29.8861 46.7277 29.4551 47.3737C29.1844 47.7802 28.7384 47.9999 28.2839 47.9999Z"/>
        <path d="M47.4622 22.8959L33.8392 12.0696V1.40588C33.8392 0.629517 33.2096 0 32.4329 0H15.5605C14.7837 0 14.1542 0.629517 14.1542 1.40588V12.0696L0.531178 22.8959C-0.0767318 23.3793 -0.178172 24.2637 0.305226 24.8716C0.788258 25.4795 1.67266 25.5809 2.28057 25.0975L16.0508 14.1544H31.9426L45.7128 25.0975C45.9714 25.303 46.2801 25.403 46.5866 25.403C47.0008 25.403 47.4106 25.2209 47.6882 24.8716C48.1712 24.2637 48.0701 23.3793 47.4622 22.8959ZM16.9664 11.3423V2.81213H31.027V11.3423H16.9664Z"/>
        <path d="M46.5875 31.0273H1.40625C0.629517 31.0273 0 30.3977 0 29.621V23.9967C0 23.2204 0.629517 22.5909 1.40625 22.5909H46.5875C47.3643 22.5909 47.9938 23.2204 47.9938 23.9967V29.621C47.9938 30.3977 47.3643 31.0273 46.5875 31.0273ZM2.81213 28.2151H45.1816V25.403H2.81213V28.2151Z"/>
    </symbol> 
    
    
</svg>