<svg width="48" height="48" viewBox="0 0 48 48" fill="none" xmlns="http://www.w3.org/2000/svg">
<path d="M16 25.7501H5V43.0001H16V25.7501Z" stroke="black" stroke-width="2" stroke-miterlimit="10" stroke-linecap="round" stroke-linejoin="round"/>
<path d="M20 16.5003L31.5 5.00031L43 16.5003" stroke="black" stroke-width="2" stroke-miterlimit="10" stroke-linecap="round" stroke-linejoin="round"/>
<path d="M22.4199 14.2302V26.1852C22.4199 27.1902 23.2349 28.0002 24.2349 28.0002H38.7599C39.7649 28.0002 40.5749 27.1852 40.5749 26.1852V14.2302" stroke="black" stroke-width="2" stroke-miterlimit="10" stroke-linecap="round" stroke-linejoin="round"/>
<path d="M27.11 28.0004V21.0554C27.11 19.8754 28.09 18.9204 29.305 18.9204H33.695C34.905 18.9204 35.89 19.8754 35.89 21.0554V28.0004" stroke="black" stroke-width="2" stroke-miterlimit="10" stroke-linecap="round" stroke-linejoin="round"/>
<path d="M27.565 23.6104H35.735" stroke="black" stroke-width="2" stroke-miterlimit="10" stroke-linecap="round" stroke-linejoin="round"/>
<path d="M11 37.0001C11 37.2762 10.7761 37.5001 10.5 37.5001C10.2238 37.5001 9.99997 37.2762 9.99997 37.0001C9.99997 36.7239 10.2238 36.5001 10.5 36.5001C10.7761 36.5001 11 36.7239 11 37.0001Z" fill="black" stroke="black" stroke-width="2"/>
<path d="M5.50003 20.8202C8.26003 18.0602 12.735 18.0602 15.495 20.8202" stroke="black" stroke-width="2" stroke-miterlimit="10" stroke-linecap="round" stroke-linejoin="round"/>
</svg>
