<?xml version="1.0" encoding="UTF-8"?>
<svg xmlns="http://www.w3.org/2000/svg" xmlns:xlink="http://www.w3.org/1999/xlink" width="60px" height="60px" viewBox="0 0 60 60" version="1.1">
<g id="ac">
<path d="M 57.65625 30.421875 C 57.65625 32.203125 56.296875 33.515625 54.9375 33.515625 L 4.734375 33.515625 C 3.375 33.515625 2.34375 32.203125 2.34375 30.421875 L 2.34375 9.703125 C 2.34375 7.921875 3.375 6.328125 4.734375 6.328125 L 54.9375 6.328125 C 56.296875 6.328125 57.65625 7.921875 57.65625 9.703125 Z M 57.65625 30.421875 "/>
<path d="M 54.9375 34.21875 L 4.734375 34.21875 C 2.953125 34.21875 1.640625 32.578125 1.640625 30.421875 L 1.640625 9.703125 C 1.640625 7.453125 3.046875 5.625 4.734375 5.625 L 54.9375 5.625 C 56.71875 5.625 58.359375 7.546875 58.359375 9.703125 L 58.359375 30.421875 C 58.359375 32.484375 56.8125 34.21875 54.9375 34.21875 Z M 4.734375 7.03125 C 3.84375 7.03125 3.046875 8.25 3.046875 9.703125 L 3.046875 30.421875 C 3.046875 31.78125 3.796875 32.8125 4.734375 32.8125 L 54.9375 32.8125 C 55.875 32.8125 56.953125 31.828125 56.953125 30.421875 L 56.953125 9.703125 C 56.953125 8.25 55.875 7.03125 54.9375 7.03125 Z M 4.734375 7.03125 "/>
<path d="M 48.984375 22.03125 L 10.546875 22.03125 C 10.171875 22.03125 9.84375 21.703125 9.84375 21.328125 C 9.84375 20.953125 10.171875 20.625 10.546875 20.625 L 48.984375 20.625 C 49.359375 20.625 49.6875 20.953125 49.6875 21.328125 C 49.6875 21.703125 49.359375 22.03125 48.984375 22.03125 Z M 48.984375 22.03125 "/>
<path d="M 48.984375 26.25 L 10.546875 26.25 C 10.171875 26.25 9.84375 25.921875 9.84375 25.546875 C 9.84375 25.171875 10.171875 24.84375 10.546875 24.84375 L 48.984375 24.84375 C 49.359375 24.84375 49.6875 25.171875 49.6875 25.546875 C 49.6875 25.921875 49.359375 26.25 48.984375 26.25 Z M 48.984375 26.25 "/>
<path d="M 48.984375 30.9375 L 10.546875 30.9375 C 10.171875 30.9375 9.84375 30.609375 9.84375 30.234375 C 9.84375 29.859375 10.171875 29.53125 10.546875 29.53125 L 48.984375 29.53125 C 49.359375 29.53125 49.6875 29.859375 49.6875 30.234375 C 49.6875 30.609375 49.359375 30.9375 48.984375 30.9375 Z M 48.984375 30.9375 "/>
<path d="M 10.78125 12.421875 L 14.0625 12.421875 L 14.0625 15.703125 L 10.78125 15.703125 Z M 10.78125 12.421875 "/>
<path d="M 14.0625 16.40625 L 10.78125 16.40625 C 10.40625 16.40625 10.078125 16.078125 10.078125 15.703125 L 10.078125 12.421875 C 10.078125 12.046875 10.40625 11.71875 10.78125 11.71875 L 14.0625 11.71875 C 14.4375 11.71875 14.765625 12.046875 14.765625 12.421875 L 14.765625 15.703125 C 14.765625 16.078125 14.4375 16.40625 14.0625 16.40625 Z M 11.484375 15 L 13.359375 15 L 13.359375 13.125 L 11.484375 13.125 Z M 11.484375 15 "/>
<path d="M 49.546875 13.546875 C 49.546875 15.796875 47.71875 17.625 45.46875 17.625 C 43.21875 17.625 41.390625 15.796875 41.390625 13.546875 C 41.390625 11.296875 43.21875 9.46875 45.46875 9.46875 C 47.71875 9.46875 49.546875 11.296875 49.546875 13.546875 Z M 49.546875 13.546875 "/>
<path d="M 45.46875 18.328125 C 42.84375 18.328125 40.6875 16.171875 40.6875 13.546875 C 40.6875 10.921875 42.84375 8.765625 45.46875 8.765625 C 48.09375 8.765625 50.25 10.921875 50.25 13.546875 C 50.25 16.21875 48.09375 18.328125 45.46875 18.328125 Z M 45.46875 10.171875 C 43.59375 10.171875 42.09375 11.671875 42.09375 13.546875 C 42.09375 15.421875 43.59375 16.921875 45.46875 16.921875 C 47.34375 16.921875 48.84375 15.421875 48.84375 13.546875 C 48.84375 11.71875 47.34375 10.171875 45.46875 10.171875 Z M 45.46875 10.171875 "/>
<path d="M 47.296875 13.546875 C 47.296875 14.578125 46.453125 15.375 45.46875 15.375 C 44.4375 15.375 43.640625 14.53125 43.640625 13.546875 C 43.640625 12.515625 44.484375 11.71875 45.46875 11.71875 C 46.5 11.71875 47.296875 12.5625 47.296875 13.546875 Z M 47.296875 13.546875 "/>
<path d="M 45.46875 16.125 C 44.0625 16.125 42.9375 15 42.9375 13.59375 C 42.9375 12.1875 44.0625 11.0625 45.46875 11.0625 C 46.875 11.0625 48 12.1875 48 13.59375 C 48 14.953125 46.875 16.125 45.46875 16.125 Z M 45.46875 12.421875 C 44.859375 12.421875 44.34375 12.9375 44.34375 13.546875 C 44.34375 14.15625 44.859375 14.671875 45.46875 14.671875 C 46.078125 14.671875 46.59375 14.15625 46.59375 13.546875 C 46.59375 12.9375 46.078125 12.421875 45.46875 12.421875 Z M 45.46875 12.421875 "/>
<path d="M 13.40625 38.203125 C 12.984375 38.203125 12.65625 37.875 12.65625 37.453125 C 12.65625 37.03125 12.984375 36.703125 13.40625 36.703125 C 13.828125 36.703125 14.15625 37.03125 14.15625 37.453125 C 14.15625 37.875 13.78125 38.203125 13.40625 38.203125 Z M 13.40625 38.203125 "/>
<path d="M 13.40625 38.4375 C 12.890625 38.4375 12.421875 38.015625 12.421875 37.453125 C 12.421875 36.890625 12.84375 36.46875 13.359375 36.46875 C 13.921875 36.46875 14.34375 36.890625 14.34375 37.453125 C 14.34375 37.6875 14.25 37.921875 14.0625 38.109375 C 13.921875 38.34375 13.640625 38.4375 13.40625 38.4375 Z M 13.40625 36.984375 C 13.125 36.984375 12.890625 37.21875 12.890625 37.5 C 12.890625 37.78125 13.125 38.015625 13.40625 38.015625 C 13.546875 38.015625 13.6875 37.96875 13.78125 37.875 C 13.875 37.78125 13.921875 37.640625 13.921875 37.546875 C 13.875 37.21875 13.6875 36.984375 13.40625 36.984375 Z M 13.40625 36.984375 "/>
<path d="M 13.40625 43.359375 C 12.984375 43.359375 12.65625 43.03125 12.65625 42.609375 C 12.65625 42.1875 12.984375 41.859375 13.40625 41.859375 C 13.828125 41.859375 14.15625 42.1875 14.15625 42.609375 C 14.109375 43.03125 13.78125 43.359375 13.40625 43.359375 Z M 13.40625 43.359375 "/>
<path d="M 13.359375 43.59375 C 12.84375 43.59375 12.421875 43.171875 12.421875 42.609375 C 12.421875 42.09375 12.84375 41.625 13.40625 41.625 C 13.96875 41.625 14.390625 42.09375 14.390625 42.609375 C 14.34375 43.171875 13.921875 43.59375 13.359375 43.59375 Z M 13.40625 42.140625 C 13.125 42.140625 12.890625 42.375 12.890625 42.65625 C 12.890625 42.9375 13.125 43.171875 13.359375 43.171875 L 13.359375 43.40625 L 13.359375 43.171875 C 13.640625 43.171875 13.875 42.9375 13.875 42.65625 C 13.921875 42.375 13.6875 42.140625 13.40625 42.140625 Z M 13.40625 42.140625 "/>
<path d="M 13.40625 48.515625 C 12.984375 48.515625 12.65625 48.1875 12.65625 47.765625 C 12.65625 47.34375 12.984375 47.015625 13.40625 47.015625 C 13.828125 47.015625 14.15625 47.34375 14.15625 47.765625 C 14.15625 48.1875 13.78125 48.515625 13.40625 48.515625 Z M 13.40625 48.515625 "/>
<path d="M 13.40625 48.75 C 12.890625 48.75 12.421875 48.28125 12.421875 47.765625 C 12.421875 47.25 12.84375 46.78125 13.40625 46.78125 C 13.6875 46.78125 13.921875 46.875 14.109375 47.0625 C 14.296875 47.25 14.390625 47.484375 14.390625 47.765625 C 14.390625 48 14.296875 48.234375 14.109375 48.421875 C 13.921875 48.65625 13.640625 48.75 13.40625 48.75 Z M 13.40625 47.296875 C 13.125 47.296875 12.890625 47.53125 12.890625 47.8125 C 12.890625 48.09375 13.125 48.328125 13.40625 48.328125 C 13.546875 48.328125 13.6875 48.28125 13.78125 48.1875 C 13.875 48.09375 13.921875 47.953125 13.921875 47.859375 C 13.921875 47.71875 13.875 47.578125 13.78125 47.484375 C 13.640625 47.34375 13.546875 47.296875 13.40625 47.296875 Z M 13.40625 47.296875 "/>
<path d="M 21.609375 38.203125 C 21.1875 38.203125 20.859375 37.875 20.859375 37.453125 C 20.859375 37.03125 21.1875 36.703125 21.609375 36.703125 C 22.03125 36.703125 22.359375 37.03125 22.359375 37.453125 C 22.359375 37.875 22.03125 38.203125 21.609375 38.203125 Z M 21.609375 38.203125 "/>
<path d="M 21.609375 38.4375 C 21.09375 38.4375 20.625 38.015625 20.625 37.5 C 20.625 36.984375 21.046875 36.515625 21.609375 36.515625 C 22.171875 36.515625 22.59375 36.9375 22.59375 37.5 C 22.59375 37.734375 22.5 37.96875 22.3125 38.15625 C 22.125 38.34375 21.890625 38.4375 21.609375 38.4375 Z M 21.609375 36.984375 C 21.328125 36.984375 21.09375 37.21875 21.09375 37.5 C 21.09375 37.78125 21.328125 38.015625 21.609375 38.015625 C 21.75 38.015625 21.890625 37.96875 21.984375 37.875 C 22.078125 37.78125 22.125 37.640625 22.125 37.546875 C 22.125 37.21875 21.890625 36.984375 21.609375 36.984375 Z M 21.609375 36.984375 "/>
<path d="M 21.609375 43.359375 C 21.1875 43.359375 20.859375 43.03125 20.859375 42.609375 C 20.859375 42.1875 21.1875 41.859375 21.609375 41.859375 C 22.03125 41.859375 22.359375 42.1875 22.359375 42.609375 C 22.359375 43.03125 22.03125 43.359375 21.609375 43.359375 Z M 21.609375 43.359375 "/>
<path d="M 21.609375 43.59375 C 21.09375 43.59375 20.625 43.171875 20.625 42.65625 C 20.625 42.140625 21.046875 41.671875 21.609375 41.671875 C 22.171875 41.671875 22.59375 42.140625 22.59375 42.65625 C 22.59375 43.171875 22.125 43.59375 21.609375 43.59375 Z M 21.609375 42.140625 C 21.328125 42.140625 21.09375 42.375 21.09375 42.65625 C 21.09375 42.9375 21.328125 43.171875 21.609375 43.171875 L 21.609375 43.40625 L 21.609375 43.171875 C 21.890625 43.171875 22.125 42.9375 22.125 42.65625 C 22.125 42.375 21.890625 42.140625 21.609375 42.140625 Z M 21.609375 42.140625 "/>
<path d="M 21.609375 48.515625 C 21.1875 48.515625 20.859375 48.1875 20.859375 47.765625 C 20.859375 47.34375 21.1875 47.015625 21.609375 47.015625 C 22.03125 47.015625 22.359375 47.34375 22.359375 47.765625 C 22.359375 48.1875 22.03125 48.515625 21.609375 48.515625 Z M 21.609375 48.515625 "/>
<path d="M 21.609375 48.75 C 21.09375 48.75 20.625 48.28125 20.625 47.765625 C 20.625 47.25 21.046875 46.78125 21.609375 46.78125 C 21.890625 46.78125 22.125 46.875 22.3125 47.0625 C 22.5 47.25 22.59375 47.484375 22.59375 47.765625 C 22.59375 48 22.5 48.234375 22.3125 48.421875 C 22.125 48.65625 21.890625 48.75 21.609375 48.75 Z M 21.609375 47.296875 C 21.328125 47.296875 21.09375 47.53125 21.09375 47.8125 C 21.09375 48.09375 21.328125 48.328125 21.609375 48.328125 C 21.75 48.328125 21.890625 48.28125 21.984375 48.1875 C 22.078125 48.09375 22.125 47.953125 22.125 47.859375 C 22.125 47.71875 22.078125 47.578125 21.984375 47.484375 C 21.890625 47.34375 21.75 47.296875 21.609375 47.296875 Z M 21.609375 47.296875 "/>
<path d="M 29.859375 38.203125 C 29.4375 38.203125 29.109375 37.875 29.109375 37.453125 C 29.109375 37.03125 29.4375 36.703125 29.859375 36.703125 C 30.28125 36.703125 30.609375 37.03125 30.609375 37.453125 C 30.609375 37.875 30.234375 38.203125 29.859375 38.203125 Z M 29.859375 38.203125 "/>
<path d="M 29.859375 38.4375 C 29.296875 38.4375 28.875 38.015625 28.875 37.453125 C 28.875 36.890625 29.296875 36.46875 29.8125 36.46875 C 30.375 36.46875 30.796875 36.890625 30.796875 37.453125 C 30.796875 37.6875 30.703125 37.921875 30.515625 38.109375 C 30.375 38.34375 30.09375 38.4375 29.859375 38.4375 Z M 29.859375 36.984375 C 29.578125 36.984375 29.34375 37.21875 29.34375 37.5 C 29.34375 37.78125 29.578125 38.015625 29.859375 38.015625 C 30 38.015625 30.140625 37.96875 30.234375 37.875 C 30.328125 37.78125 30.375 37.640625 30.375 37.546875 C 30.328125 37.21875 30.140625 36.984375 29.859375 36.984375 Z M 29.859375 36.984375 "/>
<path d="M 29.859375 43.359375 C 29.4375 43.359375 29.109375 43.03125 29.109375 42.609375 C 29.109375 42.1875 29.4375 41.859375 29.859375 41.859375 C 30.28125 41.859375 30.609375 42.1875 30.609375 42.609375 C 30.5625 43.03125 30.234375 43.359375 29.859375 43.359375 Z M 29.859375 43.359375 "/>
<path d="M 29.859375 43.59375 C 29.34375 43.59375 28.875 43.171875 28.875 42.609375 C 28.875 42.09375 29.296875 41.625 29.859375 41.625 C 30.421875 41.625 30.84375 42.09375 30.84375 42.609375 C 30.796875 43.171875 30.375 43.59375 29.859375 43.59375 Z M 29.859375 42.140625 C 29.578125 42.140625 29.34375 42.375 29.34375 42.65625 C 29.34375 42.9375 29.578125 43.171875 29.859375 43.171875 L 29.859375 43.40625 L 29.859375 43.171875 C 30.140625 43.171875 30.375 42.9375 30.375 42.65625 C 30.375 42.375 30.140625 42.140625 29.859375 42.140625 Z M 29.859375 42.140625 "/>
<path d="M 29.859375 48.515625 C 29.4375 48.515625 29.109375 48.1875 29.109375 47.765625 C 29.109375 47.34375 29.4375 47.015625 29.859375 47.015625 C 30.28125 47.015625 30.609375 47.34375 30.609375 47.765625 C 30.609375 48.1875 30.234375 48.515625 29.859375 48.515625 Z M 29.859375 48.515625 "/>
<path d="M 29.859375 48.75 C 29.34375 48.75 28.875 48.28125 28.875 47.765625 C 28.875 47.25 29.296875 46.78125 29.859375 46.78125 C 30.09375 46.78125 30.375 46.875 30.5625 47.0625 C 30.75 47.25 30.84375 47.484375 30.84375 47.765625 C 30.84375 48 30.75 48.234375 30.5625 48.421875 C 30.375 48.65625 30.09375 48.75 29.859375 48.75 Z M 29.859375 47.296875 C 29.578125 47.296875 29.34375 47.53125 29.34375 47.8125 C 29.34375 48.09375 29.578125 48.328125 29.859375 48.328125 C 30 48.328125 30.09375 48.28125 30.234375 48.1875 C 30.328125 48.09375 30.375 47.953125 30.375 47.859375 C 30.375 47.71875 30.328125 47.578125 30.234375 47.484375 C 30.09375 47.34375 30 47.296875 29.859375 47.296875 Z M 29.859375 47.296875 "/>
<path d="M 38.0625 38.203125 C 37.640625 38.203125 37.3125 37.875 37.3125 37.453125 C 37.3125 37.03125 37.640625 36.703125 38.0625 36.703125 C 38.484375 36.703125 38.765625 37.03125 38.765625 37.453125 C 38.8125 37.875 38.484375 38.203125 38.0625 38.203125 Z M 38.0625 38.203125 "/>
<path d="M 38.0625 38.4375 C 37.546875 38.4375 37.078125 38.015625 37.078125 37.453125 C 37.078125 36.890625 37.5 36.46875 38.015625 36.46875 C 38.578125 36.46875 39 36.890625 39 37.453125 C 39 37.6875 38.90625 37.921875 38.765625 38.109375 C 38.578125 38.34375 38.34375 38.4375 38.0625 38.4375 Z M 38.0625 36.984375 C 37.78125 36.984375 37.546875 37.21875 37.546875 37.5 C 37.546875 37.78125 37.78125 38.015625 38.0625 38.015625 C 38.203125 38.015625 38.34375 37.96875 38.4375 37.875 C 38.53125 37.78125 38.578125 37.6875 38.578125 37.546875 C 38.578125 37.21875 38.34375 36.984375 38.0625 36.984375 Z M 38.0625 36.984375 "/>
<path d="M 38.0625 43.359375 C 37.640625 43.359375 37.3125 43.03125 37.3125 42.609375 C 37.3125 42.1875 37.640625 41.859375 38.0625 41.859375 C 38.484375 41.859375 38.8125 42.1875 38.8125 42.609375 C 38.8125 43.03125 38.484375 43.359375 38.0625 43.359375 Z M 38.0625 43.359375 "/>
<path d="M 38.0625 43.59375 C 37.546875 43.59375 37.078125 43.171875 37.078125 42.609375 C 37.078125 42.09375 37.5 41.625 38.0625 41.625 C 38.625 41.625 39.046875 42.09375 39.046875 42.609375 C 39.046875 43.171875 38.578125 43.59375 38.0625 43.59375 Z M 38.0625 42.140625 C 37.78125 42.140625 37.546875 42.375 37.546875 42.65625 C 37.546875 42.9375 37.78125 43.171875 38.0625 43.171875 L 38.0625 43.40625 L 38.0625 43.171875 C 38.34375 43.171875 38.578125 42.9375 38.578125 42.65625 C 38.578125 42.375 38.34375 42.140625 38.0625 42.140625 Z M 38.0625 42.140625 "/>
<path d="M 38.0625 48.515625 C 37.640625 48.515625 37.3125 48.1875 37.3125 47.765625 C 37.3125 47.34375 37.640625 47.015625 38.0625 47.015625 C 38.484375 47.015625 38.8125 47.34375 38.765625 47.765625 C 38.8125 48.1875 38.484375 48.515625 38.0625 48.515625 Z M 38.0625 48.515625 "/>
<path d="M 38.0625 48.75 C 37.546875 48.75 37.078125 48.28125 37.078125 47.765625 C 37.078125 47.25 37.5 46.78125 38.0625 46.78125 C 38.34375 46.78125 38.578125 46.875 38.765625 47.0625 C 38.953125 47.25 39.046875 47.484375 39 47.765625 C 39 48 38.90625 48.234375 38.71875 48.421875 C 38.578125 48.65625 38.34375 48.75 38.0625 48.75 Z M 38.0625 47.296875 C 37.78125 47.296875 37.546875 47.53125 37.546875 47.8125 C 37.546875 48.09375 37.78125 48.328125 38.0625 48.328125 C 38.203125 48.328125 38.34375 48.28125 38.4375 48.1875 C 38.53125 48.09375 38.578125 47.953125 38.578125 47.859375 C 38.578125 47.71875 38.53125 47.578125 38.4375 47.484375 C 38.34375 47.34375 38.203125 47.296875 38.0625 47.296875 Z M 38.0625 47.296875 "/>
<path d="M 46.3125 38.203125 C 45.890625 38.203125 45.5625 37.875 45.5625 37.453125 C 45.5625 37.03125 45.890625 36.703125 46.3125 36.703125 C 46.734375 36.703125 47.0625 37.03125 47.0625 37.453125 C 47.0625 37.875 46.734375 38.203125 46.3125 38.203125 Z M 46.3125 38.203125 "/>
<path d="M 46.3125 38.4375 C 45.796875 38.4375 45.328125 38.015625 45.328125 37.453125 C 45.328125 36.890625 45.75 36.46875 46.265625 36.46875 C 46.828125 36.46875 47.25 36.890625 47.25 37.453125 C 47.25 37.6875 47.15625 37.921875 46.96875 38.109375 C 46.828125 38.34375 46.59375 38.4375 46.3125 38.4375 Z M 46.3125 36.984375 C 46.03125 36.984375 45.796875 37.21875 45.796875 37.5 C 45.796875 37.78125 46.03125 38.015625 46.3125 38.015625 C 46.453125 38.015625 46.59375 37.96875 46.6875 37.875 C 46.78125 37.78125 46.828125 37.640625 46.828125 37.546875 C 46.78125 37.21875 46.59375 36.984375 46.3125 36.984375 Z M 46.3125 36.984375 "/>
<path d="M 46.3125 43.359375 C 45.890625 43.359375 45.5625 43.03125 45.5625 42.609375 C 45.5625 42.1875 45.890625 41.859375 46.3125 41.859375 C 46.734375 41.859375 47.0625 42.1875 47.0625 42.609375 C 47.015625 43.03125 46.734375 43.359375 46.3125 43.359375 Z M 46.3125 43.359375 "/>
<path d="M 46.3125 43.59375 C 45.796875 43.59375 45.328125 43.171875 45.328125 42.609375 C 45.328125 42.09375 45.75 41.625 46.3125 41.625 C 46.875 41.625 47.296875 42.09375 47.296875 42.609375 C 47.25 43.171875 46.828125 43.59375 46.3125 43.59375 Z M 46.3125 42.140625 C 46.03125 42.140625 45.796875 42.375 45.796875 42.65625 C 45.796875 42.9375 46.03125 43.171875 46.3125 43.171875 L 46.3125 43.40625 L 46.3125 43.171875 C 46.59375 43.171875 46.828125 42.9375 46.828125 42.65625 C 46.828125 42.375 46.59375 42.140625 46.3125 42.140625 Z M 46.3125 42.140625 "/>
<path d="M 46.3125 48.515625 C 45.890625 48.515625 45.5625 48.1875 45.5625 47.765625 C 45.5625 47.34375 45.890625 47.015625 46.3125 47.015625 C 46.734375 47.015625 47.0625 47.34375 47.0625 47.765625 C 47.0625 48.1875 46.734375 48.515625 46.3125 48.515625 Z M 46.3125 48.515625 "/>
<path d="M 46.3125 48.75 C 45.796875 48.75 45.328125 48.28125 45.328125 47.765625 C 45.328125 47.25 45.75 46.78125 46.3125 46.78125 C 46.59375 46.78125 46.828125 46.875 47.015625 47.0625 C 47.203125 47.25 47.296875 47.484375 47.296875 47.765625 C 47.296875 48 47.203125 48.234375 47.015625 48.421875 C 46.828125 48.65625 46.546875 48.75 46.3125 48.75 Z M 46.3125 47.296875 C 46.03125 47.296875 45.796875 47.53125 45.796875 47.8125 C 45.796875 48.09375 46.03125 48.328125 46.3125 48.328125 C 46.453125 48.328125 46.59375 48.28125 46.6875 48.1875 C 46.78125 48.09375 46.828125 47.953125 46.828125 47.859375 C 46.828125 47.71875 46.78125 47.578125 46.6875 47.484375 C 46.59375 47.34375 46.453125 47.296875 46.3125 47.296875 Z M 46.3125 47.296875 "/>
<path d="M 10.078125 51.5625 L 12.1875 53.671875 L 14.296875 51.5625 Z M 10.078125 51.5625 "/>
<path d="M 14.484375 51.5625 L 16.59375 53.671875 L 18.75 51.5625 Z M 14.484375 51.5625 "/>
<path d="M 18.890625 51.5625 L 21 53.671875 L 23.15625 51.5625 Z M 18.890625 51.5625 "/>
<path d="M 23.296875 51.5625 L 25.40625 53.671875 L 27.5625 51.5625 Z M 23.296875 51.5625 "/>
<path d="M 27.703125 51.5625 L 29.859375 53.671875 L 31.96875 51.5625 Z M 27.703125 51.5625 "/>
<path d="M 32.15625 51.5625 L 34.265625 53.671875 L 36.375 51.5625 Z M 32.15625 51.5625 "/>
<path d="M 36.5625 51.5625 L 38.671875 53.671875 L 40.828125 51.5625 Z M 36.5625 51.5625 "/>
<path d="M 40.96875 51.5625 L 43.078125 53.671875 L 45.234375 51.5625 Z M 40.96875 51.5625 "/>
<path d="M 45.375 51.5625 L 47.53125 53.671875 L 49.640625 51.5625 Z M 45.375 51.5625 "/>
</g>
</svg>
