<?xml version="1.0" encoding="UTF-8"?>
<svg xmlns="http://www.w3.org/2000/svg" xmlns:xlink="http://www.w3.org/1999/xlink" id='blender' width="60px" height="60px" viewBox="0 0 60 60" version="1.1">
<g id="surface1">
<path d="M 24.375 2.027344 C 23.800781 2.214844 22.816406 3.222656 22.640625 3.820312 C 22.558594 4.089844 22.5 4.605469 22.5 4.96875 L 22.5 5.625 L 16.511719 5.625 L 16.230469 5.917969 C 15.949219 6.1875 15.9375 6.257812 15.9375 7.792969 L 15.9375 9.375 L 13.886719 9.375 C 11.859375 9.375 11.824219 9.375 11.542969 9.667969 C 10.957031 10.242188 11.050781 10.394531 13.605469 13.464844 L 15.960938 16.289062 L 16.066406 18.433594 C 16.417969 25.722656 17.296875 31.992188 18.515625 35.953125 C 18.703125 36.550781 18.75 37.042969 18.75 38.378906 L 18.75 40.042969 L 17.226562 42.726562 C 16.289062 44.355469 15.574219 45.773438 15.386719 46.347656 L 15.070312 47.285156 L 15.023438 52.40625 L 14.988281 57.539062 L 15.574219 58.125 L 40.675781 58.125 L 41.261719 57.539062 L 41.226562 52.40625 L 41.179688 47.285156 L 40.863281 46.347656 C 40.675781 45.773438 39.960938 44.355469 39.023438 42.726562 L 37.5 40.042969 L 37.5 38.390625 C 37.5 36.902344 37.535156 36.609375 37.851562 35.519531 C 38.050781 34.851562 38.203125 34.242188 38.203125 34.171875 C 38.203125 34.101562 40.183594 32.671875 42.609375 30.996094 C 47.121094 27.878906 47.789062 27.316406 48.269531 26.308594 C 48.738281 25.324219 48.761719 24.867188 48.726562 18.796875 L 48.691406 12.9375 L 48.257812 12.046875 C 47.730469 10.980469 47.050781 10.324219 45.960938 9.808594 L 45.175781 9.433594 L 42.75 9.398438 L 40.3125 9.351562 L 40.3125 7.78125 C 40.3125 6.257812 40.300781 6.1875 40.019531 5.917969 L 39.738281 5.625 L 33.75 5.625 L 33.75 4.96875 C 33.75 4.019531 33.539062 3.457031 32.964844 2.8125 C 32.15625 1.910156 31.933594 1.875 28.078125 1.886719 C 26.039062 1.898438 24.632812 1.945312 24.375 2.027344 Z M 31.582031 4.042969 C 31.828125 4.277344 31.875 4.441406 31.875 4.980469 L 31.875 5.625 L 24.375 5.625 L 24.375 4.980469 C 24.375 4.441406 24.421875 4.277344 24.667969 4.042969 L 24.949219 3.75 L 31.300781 3.75 Z M 38.4375 8.4375 L 38.4375 9.375 L 17.8125 9.375 L 17.8125 7.5 L 38.4375 7.5 Z M 15.9375 12.246094 C 15.9375 12.796875 15.925781 13.242188 15.902344 13.242188 C 15.878906 13.242188 15.480469 12.796875 15.011719 12.246094 L 14.167969 11.25 L 15.9375 11.25 Z M 38.4375 12.1875 L 38.4375 13.125 L 17.8125 13.125 L 17.8125 11.25 L 38.4375 11.25 Z M 44.929688 11.390625 C 45.234375 11.484375 45.632812 11.753906 45.996094 12.128906 C 46.371094 12.492188 46.640625 12.890625 46.734375 13.195312 C 46.910156 13.804688 46.933594 24.457031 46.757812 25.066406 C 46.511719 25.933594 46.101562 26.296875 42.515625 28.78125 C 40.570312 30.128906 38.953125 31.242188 38.90625 31.265625 C 38.8125 31.300781 39.234375 28.804688 39.351562 28.6875 C 39.398438 28.640625 40.523438 27.867188 41.835938 26.988281 C 43.886719 25.605469 44.285156 25.289062 44.589844 24.796875 L 44.941406 24.222656 L 44.976562 19.933594 C 45.023438 14.929688 45.011719 14.882812 44.132812 14.003906 C 43.394531 13.277344 42.9375 13.125 41.4375 13.125 L 40.3125 13.125 L 40.3125 11.25 L 42.375 11.25 C 43.664062 11.25 44.625 11.308594 44.929688 11.390625 Z M 38.4375 15.375 C 38.4375 15.585938 38.378906 16.792969 38.320312 18.046875 C 37.992188 24.714844 37.3125 30.046875 36.304688 34.042969 L 35.917969 35.566406 L 20.34375 35.566406 L 19.96875 34.136719 C 18.972656 30.339844 18.257812 24.773438 17.929688 18.175781 C 17.871094 16.863281 17.8125 15.609375 17.8125 15.398438 L 17.8125 15 L 38.4375 15 Z M 42.832031 15.292969 L 43.125 15.574219 L 43.125 19.570312 C 43.125 22.113281 43.078125 23.648438 43.007812 23.800781 C 42.878906 24.035156 39.738281 26.191406 39.65625 26.097656 C 39.621094 26.074219 39.679688 25.230469 39.773438 24.246094 C 39.972656 22.207031 40.148438 19.570312 40.265625 16.839844 L 40.335938 15 L 41.449219 15 C 42.457031 15 42.574219 15.023438 42.832031 15.292969 Z M 35.625 38.4375 L 35.625 39.375 L 20.625 39.375 L 20.625 37.5 L 35.625 37.5 Z M 37.371094 43.605469 C 39.433594 47.238281 39.304688 46.6875 39.351562 51.878906 L 39.386719 56.25 L 16.863281 56.25 L 16.898438 51.890625 C 16.945312 46.6875 16.816406 47.25 18.878906 43.617188 L 20.214844 41.25 L 28.125 41.25 L 36.035156 41.261719 Z M 37.371094 43.605469 "/>
<path d="M 25.605469 17.167969 L 25.3125 17.449219 L 25.3125 33.175781 L 25.605469 33.457031 L 25.886719 33.75 L 31.300781 33.75 L 31.582031 33.457031 C 31.96875 33.082031 31.96875 32.542969 31.582031 32.167969 C 31.300781 31.875 31.265625 31.875 29.238281 31.875 L 27.1875 31.875 L 27.1875 30 L 28.300781 30 C 29.332031 30 29.449219 29.976562 29.707031 29.707031 C 29.894531 29.53125 30 29.285156 30 29.0625 C 30 28.839844 29.894531 28.59375 29.707031 28.417969 C 29.449219 28.148438 29.332031 28.125 28.300781 28.125 L 27.1875 28.125 L 27.1875 26.25 L 29.238281 26.25 C 31.265625 26.25 31.300781 26.25 31.582031 25.957031 C 31.769531 25.78125 31.875 25.535156 31.875 25.3125 C 31.875 25.089844 31.769531 24.84375 31.582031 24.667969 C 31.300781 24.375 31.265625 24.375 29.238281 24.375 L 27.1875 24.375 L 27.1875 22.5 L 28.300781 22.5 C 29.332031 22.5 29.449219 22.476562 29.707031 22.207031 C 29.894531 22.03125 30 21.785156 30 21.5625 C 30 21.339844 29.894531 21.09375 29.707031 20.917969 C 29.449219 20.648438 29.332031 20.625 28.300781 20.625 L 27.1875 20.625 L 27.1875 18.75 L 29.238281 18.75 C 31.265625 18.75 31.300781 18.75 31.582031 18.457031 C 31.769531 18.28125 31.875 18.035156 31.875 17.8125 C 31.875 17.589844 31.769531 17.34375 31.582031 17.167969 L 31.300781 16.875 L 25.886719 16.875 Z M 25.605469 17.167969 "/>
<path d="M 26.953125 43.277344 C 24.84375 43.886719 23.4375 45.703125 23.4375 47.8125 C 23.4375 50.90625 26.460938 53.179688 29.425781 52.3125 C 30.738281 51.925781 31.757812 51.035156 32.390625 49.699219 C 32.71875 48.996094 32.753906 48.820312 32.753906 47.800781 C 32.753906 46.746094 32.730469 46.640625 32.320312 45.796875 C 31.523438 44.203125 30.117188 43.265625 28.382812 43.171875 C 27.84375 43.148438 27.269531 43.183594 26.953125 43.277344 Z M 28.933594 45.128906 L 29.308594 45.257812 L 28.253906 46.347656 C 27.058594 47.566406 26.929688 47.917969 27.480469 48.457031 C 28.019531 49.007812 28.371094 48.878906 29.589844 47.683594 L 30.679688 46.628906 L 30.808594 47.003906 C 31.382812 48.65625 29.929688 50.625 28.125 50.625 C 27.046875 50.625 25.757812 49.6875 25.453125 48.679688 C 25.125 47.578125 25.359375 46.699219 26.191406 45.878906 C 26.988281 45.070312 27.984375 44.800781 28.933594 45.128906 Z M 28.933594 45.128906 "/>
</g>
</svg>
