<?xml version="1.0" encoding="UTF-8"?>
<svg xmlns="http://www.w3.org/2000/svg" xmlns:xlink="http://www.w3.org/1999/xlink" width="60px" height="60px" viewBox="0 0 60 60" version="1.1">
<g id="coffee">
<path d="M 7.511719 0.1875 C 5.496094 0.726562 3.972656 2.402344 3.644531 4.453125 C 3.46875 5.53125 3.46875 19.242188 3.644531 20.0625 C 3.820312 20.871094 4.007812 21.234375 4.605469 21.878906 C 5.132812 22.453125 5.753906 22.816406 6.5625 23.027344 L 7.089844 23.15625 L 7.089844 50.882812 L 6.457031 51.105469 C 5.261719 51.515625 4.21875 52.59375 3.785156 53.835938 C 3.609375 54.316406 3.574219 54.808594 3.574219 56.367188 C 3.574219 58.195312 3.585938 58.324219 3.855469 58.792969 C 4.019531 59.074219 4.347656 59.4375 4.605469 59.613281 L 5.074219 59.941406 L 54.925781 59.941406 L 55.394531 59.613281 C 55.652344 59.4375 55.980469 59.074219 56.144531 58.792969 C 56.414062 58.324219 56.425781 58.195312 56.425781 56.367188 C 56.425781 54.152344 56.296875 53.601562 55.546875 52.605469 C 55.007812 51.878906 54.339844 51.375 53.53125 51.09375 L 52.910156 50.882812 L 52.875 36.996094 L 52.851562 23.121094 L 53.332031 23.039062 C 54.070312 22.921875 54.878906 22.453125 55.464844 21.796875 C 56.34375 20.824219 56.402344 20.542969 56.460938 17.121094 C 56.507812 13.933594 56.460938 13.605469 55.945312 13.371094 C 55.535156 13.183594 55.382812 13.207031 55.03125 13.488281 L 54.726562 13.722656 L 54.726562 16.558594 C 54.726562 18.152344 54.667969 19.582031 54.609375 19.828125 C 54.445312 20.390625 53.964844 20.964844 53.472656 21.164062 C 52.910156 21.410156 7.089844 21.410156 6.527344 21.164062 C 6.023438 20.964844 5.542969 20.378906 5.390625 19.804688 C 5.308594 19.488281 5.273438 16.886719 5.296875 11.929688 L 5.332031 4.511719 L 5.636719 3.855469 C 6 3.082031 6.621094 2.449219 7.371094 2.085938 L 7.910156 1.816406 L 52.089844 1.816406 L 52.628906 2.085938 C 53.378906 2.449219 54 3.082031 54.363281 3.855469 C 54.667969 4.5 54.667969 4.558594 54.703125 7.464844 L 54.75 10.429688 L 55.042969 10.664062 C 55.535156 11.050781 56.039062 10.957031 56.308594 10.417969 C 56.519531 10.019531 56.554688 5.671875 56.355469 4.453125 C 56.027344 2.378906 54.503906 0.714844 52.441406 0.175781 C 51.832031 0.0234375 49.171875 0 29.941406 0.0117188 C 11.285156 0.0117188 8.050781 0.0351562 7.511719 0.1875 Z M 22.96875 24.960938 C 23.039062 26.953125 23.109375 27.210938 23.835938 27.925781 C 24.351562 28.441406 24.996094 28.746094 25.757812 28.804688 L 26.367188 28.851562 L 26.367188 29.90625 C 26.367188 31.148438 26.554688 31.628906 27.175781 32.0625 C 27.585938 32.34375 27.644531 32.34375 30 32.34375 C 32.355469 32.34375 32.414062 32.34375 32.824219 32.0625 C 33.457031 31.628906 33.632812 31.148438 33.632812 29.894531 L 33.632812 28.828125 L 34.078125 28.828125 C 34.78125 28.828125 35.566406 28.5 36.082031 28.007812 C 36.890625 27.222656 36.960938 27 37.03125 24.960938 L 37.089844 23.144531 L 44.097656 23.109375 L 51.09375 23.085938 L 51.09375 50.859375 L 37.359375 50.859375 L 37.417969 50.472656 C 37.453125 50.273438 37.523438 49.875 37.558594 49.617188 L 37.628906 49.136719 L 39 49.078125 C 41.085938 48.996094 41.683594 48.574219 42.164062 46.933594 C 42.691406 45.152344 43.007812 43.699219 43.007812 43.113281 C 43.007812 42.292969 42.597656 41.601562 41.871094 41.179688 C 41.414062 40.898438 41.179688 40.851562 40.113281 40.804688 L 38.882812 40.746094 L 38.953125 40.394531 C 39.152344 39.386719 39.164062 38.800781 38.976562 38.167969 C 38.730469 37.300781 38.167969 36.609375 37.382812 36.164062 L 36.738281 35.800781 L 30.257812 35.765625 C 26.167969 35.742188 23.625 35.777344 23.34375 35.847656 C 22.183594 36.164062 21.234375 37.171875 20.964844 38.378906 C 20.835938 38.941406 20.90625 39.46875 21.667969 44.542969 C 22.125 47.601562 22.535156 50.273438 22.570312 50.472656 L 22.640625 50.859375 L 8.90625 50.859375 L 8.90625 23.085938 L 15.914062 23.109375 L 22.910156 23.144531 Z M 35.273438 24.679688 L 35.273438 26.273438 L 34.476562 27.070312 L 25.523438 27.070312 L 24.726562 26.273438 L 24.726562 23.085938 L 35.273438 23.085938 Z M 31.875 29.707031 L 31.875 30.585938 L 28.125 30.585938 L 28.125 28.828125 L 31.875 28.828125 Z M 36.5625 37.710938 C 36.785156 37.839844 37.066406 38.132812 37.183594 38.367188 C 37.394531 38.777344 37.40625 38.882812 37.265625 39.796875 L 37.125 40.769531 L 28.335938 40.839844 L 28.054688 41.167969 C 27.714844 41.566406 27.703125 41.824219 28.019531 42.234375 L 28.253906 42.539062 L 32.53125 42.539062 C 36.316406 42.539062 36.796875 42.5625 36.796875 42.726562 C 36.796875 42.820312 36.539062 44.648438 36.210938 46.769531 C 35.894531 48.890625 35.625 50.683594 35.625 50.742188 C 35.625 50.8125 33.503906 50.859375 30 50.859375 C 26.496094 50.859375 24.375 50.8125 24.375 50.742188 C 24.375 50.683594 24.117188 48.890625 23.789062 46.769531 C 23.472656 44.648438 23.203125 42.820312 23.203125 42.726562 C 23.203125 42.574219 23.367188 42.539062 24.082031 42.539062 C 24.808594 42.539062 25.007812 42.492188 25.195312 42.304688 C 25.488281 42.011719 25.5 41.472656 25.207031 41.121094 C 25.007812 40.875 24.867188 40.839844 23.929688 40.804688 L 22.875 40.757812 L 22.734375 39.890625 C 22.664062 39.410156 22.628906 38.871094 22.675781 38.683594 C 22.757812 38.308594 23.238281 37.769531 23.613281 37.605469 C 23.742188 37.558594 26.613281 37.511719 30 37.511719 C 35.765625 37.5 36.175781 37.511719 36.5625 37.710938 Z M 40.992188 42.726562 C 41.144531 42.820312 41.25 43.03125 41.25 43.195312 C 41.25 43.628906 40.429688 46.839844 40.253906 47.074219 C 40.125 47.238281 39.890625 47.296875 39.035156 47.320312 C 38.015625 47.367188 37.96875 47.355469 37.96875 47.121094 C 37.96875 46.839844 38.542969 42.925781 38.613281 42.679688 C 38.695312 42.457031 40.652344 42.492188 40.992188 42.726562 Z M 53.0625 52.804688 C 53.613281 53.027344 54.09375 53.484375 54.410156 54.082031 C 54.75 54.738281 54.855469 57.492188 54.5625 57.949219 L 54.375 58.242188 L 5.625 58.242188 L 5.4375 57.949219 C 5.285156 57.714844 5.261719 57.398438 5.296875 56.109375 C 5.34375 54.410156 5.484375 53.941406 6.175781 53.296875 C 6.925781 52.582031 5.179688 52.628906 29.976562 52.617188 C 50.191406 52.617188 52.675781 52.640625 53.0625 52.804688 Z M 53.0625 52.804688 "/>
<path d="M 28.863281 4.570312 C 26.589844 4.980469 24.65625 6.445312 23.671875 8.496094 C 23.132812 9.621094 22.96875 10.359375 22.96875 11.625 C 22.96875 13.523438 23.660156 15.128906 25.066406 16.523438 C 26.085938 17.542969 27 18.070312 28.3125 18.398438 C 29.964844 18.820312 31.757812 18.609375 33.316406 17.789062 C 34.910156 16.957031 36.375 15.070312 36.84375 13.277344 C 37.066406 12.445312 37.089844 10.945312 36.902344 10.054688 C 36.574219 8.425781 35.285156 6.585938 33.832031 5.625 C 32.507812 4.757812 30.375 4.300781 28.863281 4.570312 Z M 31.617188 6.503906 C 32.507812 6.773438 33.609375 7.570312 34.242188 8.414062 C 36.210938 11.027344 35.25 14.941406 32.285156 16.335938 C 28.769531 18.011719 24.726562 15.445312 24.726562 11.542969 C 24.726562 7.945312 28.125 5.472656 31.617188 6.503906 Z M 31.617188 6.503906 "/>
<path d="M 29.378906 10.992188 C 27.199219 13.171875 27.082031 13.347656 27.480469 13.910156 C 27.714844 14.238281 28.171875 14.34375 28.570312 14.132812 C 28.746094 14.039062 29.742188 13.101562 30.796875 12.046875 C 32.449219 10.371094 32.695312 10.078125 32.695312 9.75 C 32.695312 9.257812 32.332031 8.90625 31.839844 8.90625 C 31.5 8.90625 31.230469 9.140625 29.378906 10.992188 Z M 29.378906 10.992188 "/>
<path d="M 9.550781 8.25 C 9.128906 8.4375 8.472656 9.152344 8.367188 9.539062 C 8.332031 9.679688 8.320312 10.699219 8.34375 11.789062 C 8.378906 13.640625 8.390625 13.792969 8.648438 14.15625 C 8.800781 14.367188 9.128906 14.636719 9.375 14.765625 C 9.808594 14.988281 10.078125 15 14.015625 15 C 18.035156 15 18.234375 14.988281 18.714844 14.753906 C 19.054688 14.589844 19.324219 14.34375 19.511719 14.015625 C 19.792969 13.535156 19.804688 13.429688 19.804688 11.625 C 19.804688 10.582031 19.746094 9.597656 19.675781 9.410156 C 19.5 8.941406 19.113281 8.554688 18.574219 8.308594 C 18.140625 8.109375 17.742188 8.085938 14.003906 8.097656 C 10.875 8.097656 9.820312 8.132812 9.550781 8.25 Z M 17.988281 11.542969 L 17.988281 13.183594 L 10.136719 13.183594 L 10.101562 11.671875 C 10.089844 10.828125 10.101562 10.078125 10.125 9.996094 C 10.171875 9.867188 10.945312 9.84375 14.085938 9.867188 L 17.988281 9.902344 Z M 17.988281 11.542969 "/>
<path d="M 41.625 8.179688 C 41.203125 8.308594 40.535156 8.90625 40.359375 9.328125 C 40.242188 9.609375 40.195312 10.253906 40.195312 11.613281 C 40.195312 13.429688 40.207031 13.535156 40.488281 14.015625 C 40.675781 14.34375 40.945312 14.589844 41.285156 14.753906 C 41.765625 14.988281 41.964844 15 45.984375 15 C 49.921875 15 50.191406 14.988281 50.625 14.765625 C 50.871094 14.636719 51.199219 14.367188 51.351562 14.15625 C 51.609375 13.792969 51.621094 13.640625 51.65625 11.789062 C 51.679688 10.699219 51.667969 9.679688 51.632812 9.539062 C 51.527344 9.140625 50.859375 8.425781 50.425781 8.25 C 50.132812 8.121094 49.148438 8.085938 45.972656 8.097656 C 43.734375 8.109375 41.777344 8.144531 41.625 8.179688 Z M 49.863281 11.542969 L 49.863281 13.183594 L 42.011719 13.183594 L 41.976562 11.671875 C 41.964844 10.828125 41.976562 10.078125 42 9.996094 C 42.046875 9.867188 42.820312 9.84375 45.960938 9.867188 L 49.863281 9.902344 Z M 49.863281 11.542969 "/>
</g>
</svg>
