<?xml version="1.0" encoding="UTF-8"?>
<svg xmlns="http://www.w3.org/2000/svg" xmlns:xlink="http://www.w3.org/1999/xlink" width="60px" height="60px" viewBox="0 0 60 60" version="1.1">
<g id="pc">
<path d="M 45.394531 57.027344 C 46.222656 57.644531 46.050781 58.152344 45.019531 58.152344 L 22.511719 58.152344 C 21.476562 58.152344 21.308594 57.644531 22.136719 57.027344 L 26.636719 53.648438 C 27.464844 53.027344 28.136719 51.679688 28.136719 50.648438 L 28.136719 48.769531 C 28.136719 47.738281 28.980469 46.894531 30.011719 46.894531 L 37.515625 46.894531 C 38.550781 46.894531 39.394531 47.738281 39.394531 48.769531 L 39.394531 50.648438 C 39.394531 51.679688 40.066406 53.027344 40.894531 53.648438 Z M 60.027344 5.628906 L 60.027344 41.269531 C 60.027344 43.339844 58.347656 45.019531 56.273438 45.019531 L 18.757812 45.019531 L 18.757812 54.398438 C 18.757812 56.472656 17.078125 58.148438 15.007812 58.148438 L 3.75 58.148438 C 1.679688 58.152344 0 56.472656 0 54.398438 L 0 13.128906 C 0 11.058594 1.679688 9.378906 3.75 9.378906 L 7.503906 9.378906 L 7.503906 5.628906 C 7.503906 3.554688 9.179688 1.875 11.253906 1.875 L 56.273438 1.875 C 58.347656 1.875 60.027344 3.554688 60.027344 5.628906 Z M 3.75 16.882812 L 15.007812 16.882812 L 15.007812 13.128906 L 3.75 13.128906 Z M 3.75 24.386719 L 15.007812 24.386719 L 15.007812 20.632812 L 3.75 20.632812 Z M 7.503906 45.019531 C 7.503906 43.984375 6.664062 43.144531 5.628906 43.144531 C 4.589844 43.144531 3.75 43.984375 3.75 45.019531 C 3.75 46.058594 4.589844 46.894531 5.628906 46.894531 C 6.664062 46.894531 7.503906 46.058594 7.503906 45.019531 Z M 56.273438 9.378906 C 56.273438 7.304688 54.597656 5.628906 52.523438 5.628906 L 15.007812 5.628906 C 12.933594 5.628906 11.253906 7.304688 11.253906 9.378906 L 15.007812 9.378906 C 17.078125 9.378906 18.757812 11.058594 18.757812 13.128906 L 18.757812 39.390625 L 52.523438 39.390625 C 54.597656 39.390625 56.273438 37.714844 56.273438 35.640625 Z M 56.273438 9.378906 "/>
</g>
</svg>
