<?xml version="1.0" encoding="UTF-8"?>
<svg xmlns="http://www.w3.org/2000/svg" xmlns:xlink="http://www.w3.org/1999/xlink" width="60px" height="60px" viewBox="0 0 60 60" version="1.1">
<g id="kettle">
<path d="M 47.050781 0.292969 C 46.699219 0.632812 46.6875 0.820312 47.003906 1.21875 C 47.191406 1.453125 47.34375 1.523438 47.695312 1.523438 C 48.539062 1.523438 49.078125 1.980469 49.183594 2.789062 C 49.277344 3.503906 48.867188 3.960938 47.835938 4.324219 C 46.769531 4.699219 46.230469 5.132812 45.867188 5.90625 C 44.988281 7.804688 46.289062 9.949219 48.351562 9.972656 C 49.101562 9.984375 49.453125 9.75 49.453125 9.257812 C 49.453125 8.847656 49.160156 8.601562 48.550781 8.507812 C 47.824219 8.402344 47.507812 8.226562 47.273438 7.792969 C 47.039062 7.347656 47.097656 6.550781 47.402344 6.210938 C 47.519531 6.082031 47.941406 5.871094 48.351562 5.742188 C 49.710938 5.285156 50.390625 4.582031 50.648438 3.398438 C 50.929688 2.039062 50.050781 0.574219 48.738281 0.1875 C 47.847656 -0.0820312 47.390625 -0.0585938 47.050781 0.292969 Z M 47.050781 0.292969 "/>
<path d="M 53.027344 0.292969 C 52.863281 0.445312 52.734375 0.65625 52.734375 0.761719 C 52.734375 1.113281 53.273438 1.523438 53.730469 1.523438 C 54.925781 1.523438 55.570312 2.683594 54.925781 3.644531 C 54.714844 3.960938 54.480469 4.101562 53.8125 4.335938 C 52.746094 4.699219 52.207031 5.132812 51.84375 5.90625 C 51.175781 7.335938 51.738281 8.988281 53.132812 9.667969 C 54.292969 10.242188 55.429688 10.03125 55.429688 9.246094 C 55.429688 8.789062 55.183594 8.601562 54.480469 8.507812 C 53.34375 8.355469 52.769531 7.394531 53.261719 6.457031 C 53.4375 6.105469 53.894531 5.847656 54.679688 5.636719 C 55.277344 5.472656 56.0625 4.804688 56.402344 4.171875 C 56.789062 3.433594 56.765625 2.226562 56.332031 1.5 C 55.957031 0.855469 55.441406 0.421875 54.738281 0.175781 C 53.964844 -0.09375 53.367188 -0.0585938 53.027344 0.292969 Z M 53.027344 0.292969 "/>
<path d="M 28.652344 6.152344 C 26.460938 6.550781 24.011719 7.558594 22.148438 8.824219 C 21.046875 9.574219 18.984375 11.625 18.234375 12.714844 C 17.34375 13.992188 16.582031 15.515625 16.101562 16.957031 L 15.679688 18.269531 L 10.910156 18.304688 L 6.152344 18.339844 L 5.496094 18.644531 C 4.664062 19.03125 4.03125 19.664062 3.644531 20.496094 L 3.339844 21.152344 L 3.304688 27.878906 C 3.269531 35.214844 3.28125 35.308594 3.960938 36.65625 C 4.382812 37.5 4.863281 37.992188 8.90625 41.71875 C 10.804688 43.476562 12.539062 45.082031 12.75 45.28125 L 13.125 45.65625 L 12.890625 48.398438 C 12.5625 52.242188 12.585938 52.113281 12.246094 52.195312 C 11.824219 52.300781 11.15625 52.933594 10.875 53.472656 C 10.6875 53.847656 10.628906 54.246094 10.582031 55.359375 C 10.464844 58.007812 10.828125 59.050781 12.058594 59.671875 L 12.703125 60 L 50.25 60 L 50.871094 59.671875 C 51.269531 59.472656 51.632812 59.15625 51.855469 58.839844 L 52.207031 58.335938 L 52.242188 56.273438 C 52.265625 54.972656 52.230469 54.035156 52.148438 53.753906 C 51.890625 52.863281 50.835938 52.042969 49.957031 52.03125 C 49.746094 52.03125 49.570312 52.019531 49.558594 51.996094 C 49.546875 51.984375 49.300781 48.316406 48.996094 43.851562 L 48.457031 35.730469 L 49.160156 35.285156 C 50.917969 34.171875 52.441406 32.355469 53.625 29.941406 C 54.761719 27.632812 55.382812 25.511719 55.828125 22.488281 C 56.0625 20.929688 56.0625 20.039062 55.851562 19.734375 C 55.6875 19.523438 55.488281 19.511719 51.46875 19.476562 L 47.261719 19.441406 L 47.132812 18.714844 C 46.617188 15.914062 44.953125 12.855469 42.761719 10.675781 C 40.640625 8.554688 38.25 7.183594 35.296875 6.421875 C 34.066406 6.105469 33.714844 6.058594 31.757812 6.023438 C 30.210938 6 29.320312 6.035156 28.652344 6.152344 Z M 34.042969 7.6875 C 37.910156 8.367188 41.4375 10.722656 43.605469 14.0625 L 44.179688 14.941406 L 31.441406 14.976562 C 24.445312 14.988281 18.691406 14.976562 18.65625 14.941406 C 18.632812 14.917969 18.890625 14.460938 19.253906 13.921875 C 22.476562 9.070312 28.230469 6.644531 34.042969 7.6875 Z M 45.257812 17.519531 C 45.433594 18.035156 45.65625 18.925781 45.761719 19.511719 C 45.949219 20.554688 48.070312 51.773438 47.964844 51.9375 C 47.941406 51.996094 40.300781 52.03125 30.984375 52.03125 L 14.050781 52.03125 L 14.121094 51.421875 C 14.15625 51.082031 14.789062 43.886719 15.527344 35.449219 C 16.277344 27 16.957031 19.699219 17.050781 19.21875 C 17.15625 18.738281 17.367188 17.929688 17.53125 17.425781 L 17.835938 16.523438 L 31.382812 16.546875 L 44.941406 16.582031 Z M 15.351562 20.238281 C 15.351562 20.484375 15.316406 20.964844 15.28125 21.292969 L 15.199219 21.914062 L 11.636719 21.914062 C 7.6875 21.914062 7.453125 21.949219 7.03125 22.640625 C 6.808594 23.015625 6.796875 23.214844 6.796875 28.535156 C 6.808594 33.527344 6.820312 34.078125 7.007812 34.417969 C 7.125 34.628906 8.636719 36.128906 10.371094 37.734375 C 12.117188 39.351562 13.535156 40.734375 13.535156 40.816406 C 13.523438 41.683594 13.3125 43.59375 13.230469 43.59375 C 13.113281 43.59375 6.492188 37.488281 5.882812 36.820312 C 5.660156 36.574219 5.34375 36.09375 5.179688 35.742188 L 4.863281 35.097656 L 4.828125 28.3125 C 4.792969 21.703125 4.804688 21.527344 5.039062 21.046875 C 5.285156 20.519531 5.800781 20.074219 6.316406 19.921875 C 6.480469 19.863281 8.589844 19.816406 10.992188 19.816406 L 15.351562 19.804688 Z M 54.445312 21.644531 C 54.28125 23.027344 53.765625 25.300781 53.308594 26.71875 C 52.535156 29.097656 51.480469 31.007812 50.109375 32.542969 C 49.59375 33.117188 48.433594 34.066406 48.351562 33.972656 C 48.328125 33.949219 48.152344 31.289062 47.941406 28.066406 C 47.742188 24.84375 47.542969 21.925781 47.507812 21.585938 L 47.4375 20.976562 L 54.515625 20.976562 Z M 15.046875 23.871094 C 15.011719 24.117188 14.730469 27.351562 14.414062 31.054688 C 14.097656 34.757812 13.804688 38.015625 13.769531 38.285156 L 13.699219 38.789062 L 11.015625 36.292969 L 8.332031 33.808594 L 8.320312 28.617188 L 8.320312 23.4375 L 15.09375 23.4375 Z M 50.109375 53.613281 C 50.71875 53.859375 50.859375 54.316406 50.859375 55.992188 C 50.859375 56.765625 50.800781 57.550781 50.730469 57.75 C 50.460938 58.535156 51.984375 58.476562 31.429688 58.476562 L 12.808594 58.476562 L 12.503906 58.195312 C 12.105469 57.832031 12.035156 57.386719 12.082031 55.628906 C 12.128906 54.046875 12.199219 53.882812 12.832031 53.601562 C 13.113281 53.472656 16.675781 53.449219 31.441406 53.4375 C 47.214844 53.4375 49.746094 53.460938 50.109375 53.613281 Z M 50.109375 53.613281 "/>
<path d="M 29.589844 20.191406 C 27.867188 20.765625 26.625 22.078125 26.191406 23.753906 C 26.027344 24.375 26.015625 25.710938 26.039062 34.523438 L 26.074219 44.589844 L 26.355469 45.269531 C 27.550781 48.257812 31.183594 49.347656 33.832031 47.53125 C 34.582031 47.015625 35.296875 46.113281 35.636719 45.269531 L 35.917969 44.589844 L 35.953125 34.523438 C 35.988281 23.53125 35.988281 23.671875 35.308594 22.511719 C 34.828125 21.679688 33.949219 20.882812 33.070312 20.472656 C 32.390625 20.15625 32.144531 20.097656 31.171875 20.074219 C 30.480469 20.050781 29.882812 20.097656 29.589844 20.191406 Z M 32.0625 21.691406 C 32.835938 21.890625 33.632812 22.582031 34.066406 23.425781 L 34.453125 24.164062 L 34.453125 44.238281 L 34.125 44.941406 C 33.515625 46.21875 32.414062 46.910156 30.996094 46.910156 C 29.578125 46.910156 28.476562 46.21875 27.867188 44.941406 L 27.539062 44.238281 L 27.539062 34.21875 C 27.539062 24.515625 27.550781 24.1875 27.773438 23.695312 C 28.125 22.933594 28.429688 22.535156 29.039062 22.125 C 29.929688 21.503906 30.832031 21.375 32.0625 21.691406 Z M 32.0625 21.691406 "/>
<path d="M 29.496094 25.054688 C 29.285156 25.277344 29.238281 25.746094 29.390625 25.980469 C 29.542969 26.226562 30.117188 26.367188 30.996094 26.367188 C 32.273438 26.367188 32.695312 26.167969 32.695312 25.535156 C 32.695312 24.960938 32.402344 24.84375 30.972656 24.84375 C 29.871094 24.84375 29.660156 24.878906 29.496094 25.054688 Z M 29.496094 25.054688 "/>
<path d="M 29.496094 28.570312 C 29.226562 28.863281 29.25 29.332031 29.542969 29.601562 C 29.753906 29.789062 29.976562 29.824219 30.996094 29.824219 C 32.34375 29.824219 32.695312 29.671875 32.695312 29.0625 C 32.695312 28.476562 32.402344 28.359375 30.972656 28.359375 C 29.871094 28.359375 29.660156 28.394531 29.496094 28.570312 Z M 29.496094 28.570312 "/>
<path d="M 29.496094 32.085938 C 29.226562 32.378906 29.25 32.847656 29.542969 33.117188 C 29.753906 33.304688 29.976562 33.339844 30.996094 33.339844 C 32.34375 33.339844 32.695312 33.1875 32.695312 32.578125 C 32.695312 31.992188 32.402344 31.875 30.972656 31.875 C 29.871094 31.875 29.660156 31.910156 29.496094 32.085938 Z M 29.496094 32.085938 "/>
<path d="M 29.496094 35.601562 C 29.238281 35.882812 29.25 36.363281 29.507812 36.597656 C 29.835938 36.902344 32.226562 36.890625 32.496094 36.585938 C 32.753906 36.304688 32.742188 35.824219 32.484375 35.589844 C 32.15625 35.285156 29.765625 35.296875 29.496094 35.601562 Z M 29.496094 35.601562 "/>
<path d="M 29.496094 39.117188 C 29.238281 39.398438 29.25 39.878906 29.507812 40.113281 C 29.835938 40.417969 32.226562 40.40625 32.496094 40.101562 C 32.753906 39.820312 32.742188 39.339844 32.484375 39.105469 C 32.15625 38.800781 29.765625 38.8125 29.496094 39.117188 Z M 29.496094 39.117188 "/>
<path d="M 29.496094 42.632812 C 29.238281 42.914062 29.25 43.394531 29.507812 43.628906 C 29.835938 43.933594 32.226562 43.921875 32.496094 43.617188 C 32.753906 43.335938 32.742188 42.855469 32.484375 42.621094 C 32.15625 42.316406 29.765625 42.328125 29.496094 42.632812 Z M 29.496094 42.632812 "/>
</g>
</svg>
