<?xml version="1.0" encoding="UTF-8"?>
<svg xmlns="http://www.w3.org/2000/svg" xmlns:xlink="http://www.w3.org/1999/xlink" width="60pt" height="60pt" viewBox="0 0 60 60" version="1.1">
<g id="surface1">
<path style=" stroke:none;fill-rule:nonzero;fill:rgb(0%,0%,0%);fill-opacity:1;" d="M 50.972656 29.992188 C 50.972656 28.550781 49.847656 27.382812 48.460938 27.382812 C 47.074219 27.382812 45.949219 28.550781 45.949219 29.992188 C 45.949219 31.433594 47.074219 32.601562 48.460938 32.601562 C 49.847656 32.601562 50.972656 31.433594 50.972656 29.992188 Z M 50.972656 29.992188 "/>
<path style=" stroke:none;fill-rule:nonzero;fill:rgb(0%,0%,0%);fill-opacity:1;" d="M 50.972656 38.085938 C 50.972656 36.644531 49.847656 35.476562 48.460938 35.476562 C 47.074219 35.476562 45.949219 36.644531 45.949219 38.085938 C 45.949219 39.527344 47.074219 40.695312 48.460938 40.695312 C 49.847656 40.695312 50.972656 39.527344 50.972656 38.085938 Z M 50.972656 38.085938 "/>
<path style=" stroke:none;fill-rule:nonzero;fill:rgb(0%,0%,0%);fill-opacity:1;" d="M 2.605469 11.878906 C 1.160156 11.878906 0 13.140625 0 14.585938 L 0 45.503906 C 0 46.949219 1.160156 48.121094 2.605469 48.121094 L 57.382812 48.121094 C 58.828125 48.121094 60 46.949219 60 45.503906 L 60 14.585938 C 60 13.140625 58.828125 11.878906 57.382812 11.878906 Z M 5.234375 17.113281 L 35.140625 17.113281 C 36.222656 21.140625 36.792969 25.441406 36.792969 29.921875 C 36.792969 34.464844 36.207031 38.933594 35.097656 42.886719 L 5.234375 42.886719 Z M 54.765625 42.886719 L 40.507812 42.886719 C 41.503906 38.851562 42.027344 34.40625 42.027344 29.921875 C 42.027344 25.5 41.515625 21.140625 40.546875 17.113281 L 54.765625 17.113281 Z M 54.765625 42.886719 "/>
<path style=" stroke:none;fill-rule:nonzero;fill:rgb(0%,0%,0%);fill-opacity:1;" d="M 45.761719 24.5625 L 50.949219 24.5625 C 52.394531 24.5625 53.566406 23.390625 53.566406 21.945312 C 53.566406 20.5 52.394531 19.328125 50.949219 19.328125 L 45.761719 19.328125 C 44.316406 19.328125 43.144531 20.5 43.144531 21.945312 C 43.144531 23.390625 44.316406 24.5625 45.761719 24.5625 Z M 45.761719 24.5625 "/>
</g>
</svg>
