<?xml version="1.0" encoding="UTF-8"?>
<svg xmlns="http://www.w3.org/2000/svg" xmlns:xlink="http://www.w3.org/1999/xlink" width="60px" height="60px" viewBox="0 0 60 60" version="1.1">
<g id="multivarka">
<path d="M 23.566406 3.328125 C 23.050781 3.621094 22.980469 3.914062 22.96875 5.882812 L 22.96875 7.734375 L 17.542969 7.734375 C 11.472656 7.734375 11.109375 7.769531 9.574219 8.578125 C 8.625 9.070312 7.195312 10.5 6.703125 11.449219 C 5.976562 12.832031 5.859375 13.605469 5.859375 17.015625 L 5.859375 20.039062 L 3.398438 20.039062 C 0.714844 20.039062 0.410156 20.097656 0.140625 20.683594 C -0.0820312 21.152344 -0.0585938 26.625 0.164062 27.058594 C 0.445312 27.597656 0.75 27.65625 3.398438 27.65625 L 5.859375 27.65625 L 5.859375 36.761719 C 5.859375 44.332031 5.894531 46.019531 6.035156 46.699219 C 6.550781 49.160156 8.566406 51.304688 10.992188 51.984375 L 11.71875 52.183594 L 11.71875 54.035156 C 11.71875 56.050781 11.800781 56.402344 12.316406 56.671875 C 12.796875 56.917969 21.1875 56.917969 21.667969 56.671875 C 22.183594 56.402344 22.265625 56.050781 22.265625 54.082031 L 22.265625 52.265625 L 37.734375 52.265625 L 37.734375 54.082031 C 37.734375 56.050781 37.816406 56.402344 38.332031 56.671875 C 38.8125 56.917969 47.203125 56.917969 47.683594 56.671875 C 48.199219 56.402344 48.28125 56.050781 48.28125 54.046875 L 48.28125 52.195312 L 49.136719 51.9375 C 51.527344 51.234375 53.449219 49.136719 53.964844 46.699219 C 54.1875 45.644531 54.210938 40.722656 54 40.253906 C 53.742188 39.679688 53.003906 39.457031 52.394531 39.773438 C 51.878906 40.042969 51.796875 40.394531 51.796875 42.304688 L 51.796875 44.0625 L 8.203125 44.0625 L 8.203125 15.9375 L 17.109375 15.9375 L 17.109375 22.710938 C 17.109375 29.085938 17.121094 29.542969 17.34375 30.398438 C 17.683594 31.722656 18.199219 32.625 19.21875 33.632812 C 20.226562 34.652344 21.128906 35.167969 22.453125 35.507812 C 23.296875 35.730469 23.765625 35.742188 30 35.742188 C 36.234375 35.742188 36.703125 35.730469 37.546875 35.507812 C 38.871094 35.167969 39.773438 34.652344 40.78125 33.632812 C 41.800781 32.625 42.316406 31.722656 42.65625 30.398438 C 42.878906 29.542969 42.890625 29.085938 42.890625 22.710938 L 42.890625 15.9375 L 51.796875 15.9375 L 51.796875 23.203125 C 51.796875 31.101562 51.785156 30.972656 52.441406 31.265625 C 52.839844 31.453125 53.144531 31.441406 53.542969 31.242188 C 54.035156 30.984375 54.140625 30.597656 54.140625 29.0625 L 54.140625 27.65625 L 56.601562 27.65625 C 59.25 27.65625 59.554688 27.597656 59.835938 27.058594 C 60.058594 26.625 60.082031 21.152344 59.859375 20.683594 C 59.589844 20.097656 59.285156 20.039062 56.601562 20.039062 L 54.140625 20.039062 L 54.140625 17.015625 C 54.140625 13.605469 54.023438 12.832031 53.296875 11.449219 C 52.804688 10.5 51.375 9.070312 50.425781 8.578125 C 48.890625 7.769531 48.527344 7.734375 42.457031 7.734375 L 37.03125 7.734375 L 37.03125 5.917969 C 37.03125 3.914062 36.9375 3.550781 36.386719 3.304688 C 35.917969 3.09375 23.953125 3.117188 23.566406 3.328125 Z M 34.6875 6.621094 L 34.6875 7.734375 L 25.3125 7.734375 L 25.3125 5.507812 L 34.6875 5.507812 Z M 49.007812 10.511719 C 50.074219 11.015625 50.765625 11.683594 51.269531 12.703125 L 51.691406 13.535156 L 40.851562 13.570312 C 34.886719 13.582031 25.113281 13.582031 19.148438 13.570312 L 8.308594 13.535156 L 8.730469 12.703125 C 9.351562 11.449219 10.511719 10.511719 11.800781 10.207031 C 12.058594 10.148438 20.015625 10.113281 30.234375 10.113281 L 48.222656 10.136719 Z M 22.96875 18.339844 C 22.96875 20.964844 23.027344 21.28125 23.613281 21.539062 C 23.835938 21.644531 25.535156 21.679688 30 21.679688 C 34.464844 21.679688 36.164062 21.644531 36.386719 21.539062 C 36.972656 21.28125 37.03125 20.964844 37.03125 18.339844 L 37.03125 15.9375 L 40.558594 15.9375 L 40.523438 22.875 L 40.488281 29.824219 L 40.113281 30.609375 C 39.597656 31.699219 38.941406 32.378906 37.875 32.90625 L 36.984375 33.339844 L 23.027344 33.339844 L 22.265625 32.976562 C 21.152344 32.4375 20.472656 31.792969 19.957031 30.726562 L 19.511719 29.835938 L 19.441406 15.9375 L 22.96875 15.9375 Z M 34.6875 17.636719 L 34.6875 19.335938 L 25.3125 19.335938 L 25.3125 15.9375 L 34.6875 15.9375 Z M 5.859375 23.847656 L 5.859375 25.3125 L 2.34375 25.3125 L 2.34375 22.382812 L 5.859375 22.382812 Z M 57.65625 23.847656 L 57.65625 25.3125 L 54.140625 25.3125 L 54.140625 22.382812 L 57.65625 22.382812 Z M 51.503906 46.839844 C 50.953125 48.140625 50.238281 48.914062 48.996094 49.5 L 48.222656 49.863281 L 11.777344 49.863281 L 11.003906 49.5 C 9.761719 48.914062 9.046875 48.140625 8.496094 46.839844 L 8.320312 46.40625 L 51.679688 46.40625 Z M 19.921875 53.378906 L 19.921875 54.492188 L 14.0625 54.492188 L 14.0625 52.265625 L 19.921875 52.265625 Z M 45.9375 53.378906 L 45.9375 54.492188 L 40.078125 54.492188 L 40.078125 52.265625 L 45.9375 52.265625 Z M 45.9375 53.378906 "/>
<path d="M 23.566406 24.1875 C 22.546875 24.75 22.980469 26.367188 24.140625 26.367188 C 24.738281 26.367188 25.3125 25.792969 25.3125 25.207031 C 25.3125 24.328125 24.339844 23.753906 23.566406 24.1875 Z M 23.566406 24.1875 "/>
<path d="M 29.425781 24.1875 C 28.40625 24.75 28.839844 26.367188 30 26.367188 C 30.597656 26.367188 31.171875 25.792969 31.171875 25.207031 C 31.171875 24.328125 30.199219 23.753906 29.425781 24.1875 Z M 29.425781 24.1875 "/>
<path d="M 35.285156 24.1875 C 34.265625 24.75 34.699219 26.367188 35.859375 26.367188 C 36.457031 26.367188 37.03125 25.792969 37.03125 25.207031 C 37.03125 24.328125 36.058594 23.753906 35.285156 24.1875 Z M 35.285156 24.1875 "/>
<path d="M 23.566406 28.875 C 22.546875 29.4375 22.980469 31.054688 24.140625 31.054688 C 24.738281 31.054688 25.3125 30.480469 25.3125 29.894531 C 25.3125 29.015625 24.339844 28.441406 23.566406 28.875 Z M 23.566406 28.875 "/>
<path d="M 29.425781 28.875 C 28.40625 29.4375 28.839844 31.054688 30 31.054688 C 30.597656 31.054688 31.171875 30.480469 31.171875 29.894531 C 31.171875 29.015625 30.199219 28.441406 29.425781 28.875 Z M 29.425781 28.875 "/>
<path d="M 35.285156 28.875 C 34.265625 29.4375 34.699219 31.054688 35.859375 31.054688 C 36.457031 31.054688 37.03125 30.480469 37.03125 29.894531 C 37.03125 29.015625 36.058594 28.441406 35.285156 28.875 Z M 35.285156 28.875 "/>
<path d="M 52.394531 34.5 C 51.375 35.0625 51.808594 36.679688 52.96875 36.679688 C 53.566406 36.679688 54.140625 36.105469 54.140625 35.519531 C 54.140625 34.640625 53.167969 34.066406 52.394531 34.5 Z M 52.394531 34.5 "/>
</g>
</svg>
