<?xml version="1.0" encoding="UTF-8"?>
<svg xmlns="http://www.w3.org/2000/svg" xmlns:xlink="http://www.w3.org/1999/xlink" width="39px" height="60px" viewBox="0 0 39 59" version="1.1">
<g id="Speaker">
<path d="M 32.5 5.53125 C 31.988281 5.53125 31.570312 5.945312 31.570312 6.453125 C 31.570312 6.960938 31.988281 7.375 32.5 7.375 C 33.011719 7.375 33.429688 6.960938 33.429688 6.453125 C 33.429688 5.945312 33.011719 5.53125 32.5 5.53125 Z M 32.964844 54.390625 L 6.035156 54.390625 C 5.78125 54.390625 5.570312 54.597656 5.570312 54.851562 C 5.570312 55.105469 5.78125 55.3125 6.035156 55.3125 L 32.964844 55.3125 C 33.21875 55.3125 33.429688 55.105469 33.429688 54.851562 C 33.429688 54.597656 33.21875 54.390625 32.964844 54.390625 Z M 19.5 42.40625 C 16.941406 42.40625 14.855469 40.339844 14.855469 37.796875 C 14.855469 35.253906 16.941406 33.1875 19.5 33.1875 C 22.058594 33.1875 24.144531 35.253906 24.144531 37.796875 C 24.144531 40.339844 22.058594 42.40625 19.5 42.40625 Z M 19.5 32.265625 C 16.421875 32.265625 13.929688 34.742188 13.929688 37.796875 C 13.929688 40.851562 16.421875 43.328125 19.5 43.328125 C 22.578125 43.328125 25.070312 40.851562 25.070312 37.796875 C 25.070312 34.742188 22.578125 32.265625 19.5 32.265625 Z M 19.5 11.984375 C 20.523438 11.984375 21.355469 12.8125 21.355469 13.828125 C 21.355469 14.84375 20.523438 15.671875 19.5 15.671875 C 18.476562 15.671875 17.644531 14.84375 17.644531 13.828125 C 17.644531 12.8125 18.476562 11.984375 19.5 11.984375 Z M 19.5 16.59375 C 21.039062 16.59375 22.285156 15.355469 22.285156 13.828125 C 22.285156 12.300781 21.039062 11.0625 19.5 11.0625 C 17.960938 11.0625 16.714844 12.300781 16.714844 13.828125 C 16.714844 15.355469 17.960938 16.59375 19.5 16.59375 Z M 19.5 49.78125 C 12.84375 49.78125 7.429688 44.40625 7.429688 37.796875 C 7.429688 31.1875 12.84375 25.8125 19.5 25.8125 C 26.15625 25.8125 31.570312 31.1875 31.570312 37.796875 C 31.570312 44.40625 26.15625 49.78125 19.5 49.78125 Z M 19.5 23.96875 C 11.808594 23.96875 5.570312 30.160156 5.570312 37.796875 C 5.570312 45.433594 11.808594 51.625 19.5 51.625 C 27.191406 51.625 33.429688 45.433594 33.429688 37.796875 C 33.429688 30.160156 27.191406 23.96875 19.5 23.96875 Z M 19.5 7.375 C 23.085938 7.375 26 10.269531 26 13.828125 C 26 17.386719 23.085938 20.28125 19.5 20.28125 C 15.914062 20.28125 13 17.386719 13 13.828125 C 13 10.269531 15.914062 7.375 19.5 7.375 Z M 19.5 22.125 C 24.117188 22.125 27.855469 18.410156 27.855469 13.828125 C 27.855469 9.246094 24.117188 5.53125 19.5 5.53125 C 14.882812 5.53125 11.144531 9.246094 11.144531 13.828125 C 11.144531 18.410156 14.882812 22.125 19.5 22.125 Z M 37.144531 54.390625 C 37.144531 55.914062 35.894531 57.15625 34.355469 57.15625 L 4.644531 57.15625 C 3.105469 57.15625 1.855469 55.914062 1.855469 54.390625 L 1.855469 4.609375 C 1.855469 3.085938 3.105469 1.84375 4.644531 1.84375 L 34.355469 1.84375 C 35.894531 1.84375 37.144531 3.085938 37.144531 4.609375 Z M 34.355469 0 L 4.644531 0 C 2.089844 0 0 2.074219 0 4.609375 L 0 54.390625 C 0 56.925781 2.089844 59 4.644531 59 L 34.355469 59 C 36.910156 59 39 56.925781 39 54.390625 L 39 4.609375 C 39 2.074219 36.910156 0 34.355469 0 Z M 34.355469 0 "/>
</g>
</svg>
