<svg xmlns="http://www.w3.org/2000/svg" xmlns:xlink="http://www.w3.org/1999/xlink">
    <symbol id='fridge' viewbox="0 0 60 60">
        <g>
            <path d="M43,7h-2c-0.552,0-1,0.447-1,1s0.448,1,1,1h2c0.552,0,1-0.447,1-1S43.552,7,43,7z"/>
            <path d="M14,22h-3v14h12V22h-3H14z M18,24v3h-2v-3H18z M21,24v10h-8V24h1v5h6v-5H21z"/>
            <path d="M26,20c-0.552,0-1,0.447-1,1v16c0,0.553,0.448,1,1,1s1-0.447,1-1V21C27,20.447,26.552,20,26,20z"/>
            <path d="M34,20c-0.552,0-1,0.447-1,1v16c0,0.553,0.448,1,1,1s1-0.447,1-1V21C35,20.447,34.552,20,34,20z"/>
            <path d="M21,45c0,0.553,0.448,1,1,1h16c0.552,0,1-0.447,1-1s-0.448-1-1-1H22C21.448,44,21,44.447,21,45z"/>
            <path d="M51.83,0H8.17C6.974,0,6,0.974,6,2.17V40v2v15.07C6,58.686,7.314,60,8.93,60H51.07c1.615,0,2.93-1.314,2.93-2.93V42v-2
                        		V2.17C54,0.974,53.026,0,51.83,0z M8,2.17C8,2.076,8.076,2,8.17,2H29v38H8V2.17z M52,57.07c0,0.513-0.417,0.93-0.93,0.93H8.93
                        		C8.417,58,8,57.583,8,57.07V42h44V57.07z M31,40V2h20.83C51.924,2,52,2.076,52,2.17V40H31z"/>
        </g>
    </symbol>
    <symbol id='microwave' viewbox="0 0 60 60">    
           <g id="surface1">
<path d="M 50.972656 29.992188 C 50.972656 28.550781 49.847656 27.382812 48.460938 27.382812 C 47.074219 27.382812 45.949219 28.550781 45.949219 29.992188 C 45.949219 31.433594 47.074219 32.601562 48.460938 32.601562 C 49.847656 32.601562 50.972656 31.433594 50.972656 29.992188 Z M 50.972656 29.992188 "/>
<path d="M 50.972656 38.085938 C 50.972656 36.644531 49.847656 35.476562 48.460938 35.476562 C 47.074219 35.476562 45.949219 36.644531 45.949219 38.085938 C 45.949219 39.527344 47.074219 40.695312 48.460938 40.695312 C 49.847656 40.695312 50.972656 39.527344 50.972656 38.085938 Z M 50.972656 38.085938 "/>
<path d="M 2.605469 11.878906 C 1.160156 11.878906 0 13.140625 0 14.585938 L 0 45.503906 C 0 46.949219 1.160156 48.121094 2.605469 48.121094 L 57.382812 48.121094 C 58.828125 48.121094 60 46.949219 60 45.503906 L 60 14.585938 C 60 13.140625 58.828125 11.878906 57.382812 11.878906 Z M 5.234375 17.113281 L 35.140625 17.113281 C 36.222656 21.140625 36.792969 25.441406 36.792969 29.921875 C 36.792969 34.464844 36.207031 38.933594 35.097656 42.886719 L 5.234375 42.886719 Z M 54.765625 42.886719 L 40.507812 42.886719 C 41.503906 38.851562 42.027344 34.40625 42.027344 29.921875 C 42.027344 25.5 41.515625 21.140625 40.546875 17.113281 L 54.765625 17.113281 Z M 54.765625 42.886719 "/>
<path d="M 45.761719 24.5625 L 50.949219 24.5625 C 52.394531 24.5625 53.566406 23.390625 53.566406 21.945312 C 53.566406 20.5 52.394531 19.328125 50.949219 19.328125 L 45.761719 19.328125 C 44.316406 19.328125 43.144531 20.5 43.144531 21.945312 C 43.144531 23.390625 44.316406 24.5625 45.761719 24.5625 Z M 45.761719 24.5625 "/>
</g>
    </symbol>
    <symbol id='blender' viewbox="0 0 60 60" >
        <g fill="#000">
<path d="M2080 4947 c-49 -16 -133 -102 -148 -153 -7 -23 -12 -67 -12 -98 l0
-56 -255 0 -256 0 -24 -25 c-24 -23 -25 -29 -25 -160 l0 -135 -175 0 c-173 0
-176 0 -200 -25 -50 -49 -42 -62 176 -324 l201 -241 9 -183 c30 -622 105
-1157 209 -1495 16 -51 20 -93 20 -207 l0 -142 -130 -229 c-80 -139 -141 -260
-157 -309 l-27 -80 -4 -437 -3 -438 25 -25 25 -25 1071 0 1071 0 25 25 25 25
-3 438 -4 437 -27 80 c-16 49 -77 170 -157 309 l-130 229 0 141 c0 127 3 152
30 245 17 57 30 109 30 115 0 6 169 128 376 271 385 266 442 314 483 400 40
84 42 123 39 641 l-3 500 -37 76 c-45 91 -103 147 -196 191 l-67 32 -207 3
-208 4 0 134 c0 130 -1 136 -25 159 l-24 25 -256 0 -255 0 0 56 c0 81 -18 129
-67 184 -69 77 -88 80 -417 79 -174 -1 -294 -5 -316 -12z m615 -172 c21 -20
25 -34 25 -80 l0 -55 -320 0 -320 0 0 55 c0 46 4 60 25 80 l24 25 271 0 271 0
24 -25z m585 -375 l0 -80 -880 0 -880 0 0 80 0 80 880 0 880 0 0 -80z m-1920
-325 c0 -47 -1 -85 -3 -85 -2 0 -36 38 -76 85 l-72 85 75 0 76 0 0 -85z m1920
5 l0 -80 -880 0 -880 0 0 80 0 80 880 0 880 0 0 -80z m554 68 c26 -8 60 -31
91 -63 32 -31 55 -65 63 -91 15 -52 17 -961 2 -1013 -21 -74 -56 -105 -362
-317 -166 -115 -304 -210 -308 -212 -8 -3 28 210 38 220 4 4 100 70 212 145
175 118 209 145 235 187 l30 49 3 366 c4 427 3 431 -72 506 -63 62 -102 75
-230 75 l-96 0 0 80 0 80 176 0 c110 0 192 -5 218 -12z m-554 -340 c0 -18 -5
-121 -10 -228 -28 -569 -86 -1024 -172 -1365 l-33 -130 -665 0 -664 0 -32 122
c-85 324 -146 799 -174 1362 -5 112 -10 219 -10 237 l0 34 880 0 880 0 0 -32z
m375 7 l25 -24 0 -341 c0 -217 -4 -348 -10 -361 -11 -20 -279 -204 -286 -196
-3 2 2 74 10 158 17 174 32 399 42 632 l6 157 95 0 c86 0 96 -2 118 -25z
m-615 -1975 l0 -80 -640 0 -640 0 0 80 0 80 640 0 640 0 0 -80z m149 -441
c176 -310 165 -263 169 -706 l3 -373 -961 0 -961 0 3 372 c4 444 -7 396 169
706 l114 202 675 0 675 -1 114 -200z"/>
<path d="M2185 3655 l-25 -24 0 -671 0 -671 25 -24 24 -25 231 0 231 0 24 25
c33 32 33 78 0 110 -24 25 -27 25 -200 25 l-175 0 0 80 0 80 95 0 c88 0 98 2
120 25 16 15 25 36 25 55 0 19 -9 40 -25 55 -22 23 -32 25 -120 25 l-95 0 0
80 0 80 175 0 c173 0 176 0 200 25 16 15 25 36 25 55 0 19 -9 40 -25 55 -24
25 -27 25 -200 25 l-175 0 0 80 0 80 95 0 c88 0 98 2 120 25 16 15 25 36 25
55 0 19 -9 40 -25 55 -22 23 -32 25 -120 25 l-95 0 0 80 0 80 175 0 c173 0
176 0 200 25 16 15 25 36 25 55 0 19 -9 40 -25 55 l-24 25 -231 0 -231 0 -24
-25z"/>
<path d="M2300 1427 c-180 -52 -300 -207 -300 -387 0 -264 258 -458 511 -384
112 33 199 109 253 223 28 60 31 75 31 162 0 90 -2 99 -37 171 -68 136 -188
216 -336 224 -46 2 -95 -1 -122 -9z m169 -158 l32 -11 -90 -93 c-102 -104
-113 -134 -66 -180 46 -47 76 -36 180 66 l93 90 11 -32 c49 -141 -75 -309
-229 -309 -92 0 -202 80 -228 166 -28 94 -8 169 63 239 68 69 153 92 234 64z"/>
</g>
    </symbol>
    <symbol id='pc' viewbox="0 0 60 60" >
        <g>
		<path d="M121.304,75.816H30.327C13.564,75.816,0,89.409,0,106.141v333.586c0,16.76,13.564,30.322,30.327,30.322h90.978
			c16.762,0,30.324-13.562,30.324-30.322V106.141C151.628,89.409,138.066,75.816,121.304,75.816z M45.49,379.073
			c-8.382,0-15.163-6.781-15.163-15.168c0-8.377,6.781-15.158,15.163-15.158c8.38,0,15.161,6.781,15.161,15.158
			C60.651,372.292,53.87,379.073,45.49,379.073z M121.304,197.118H30.327v-30.324h90.978V197.118z M121.304,136.467H30.327v-30.326
			h90.978V136.467z"/>
		<path d="M318.423,409.396v-30.322h-90.98v30.322c-16.759,0-30.327,13.567-30.327,30.331h151.629
			C348.745,422.963,335.183,409.396,318.423,409.396z"/>
		<path d="M454.889,15.163H90.978c-16.762,0-30.327,13.593-30.327,30.327h30.327h90.978h272.934v242.604H181.955v60.653h272.934
			c16.759,0,30.322-13.562,30.322-30.332V45.489C485.211,28.755,471.647,15.163,454.889,15.163z M272.933,333.584
			c-8.382,0-15.163-6.777-15.163-15.169c0-8.377,6.781-15.158,15.163-15.158c8.383,0,15.164,6.781,15.164,15.158
			C288.097,326.807,281.315,333.584,272.933,333.584z"/>
	</g>
    </symbol>
</svg>
