<?xml version="1.0" encoding="UTF-8"?>
<svg xmlns="http://www.w3.org/2000/svg" xmlns:xlink="http://www.w3.org/1999/xlink" width="98px" height="60px" viewBox="0 0 97 60" version="1.1">
<defs>
<linearGradient id="linear0" gradientUnits="userSpaceOnUse" x1="324.22467" y1="232.45441" x2="326.23657" y2="243.29225" gradientTransform="matrix(6.896838,0,0,6.896838,-2261.8119,-1470.6538)">
<stop offset="0" style="stop-color:rgb(83.529412%,84.705882%,92.156863%);stop-opacity:1;"/>
<stop offset="1" style="stop-color:rgb(0%,0%,0%);stop-opacity:0;"/>
</linearGradient>
</defs>
<g id="tv">
<path d="M 40.991953 379.862735 L 24.169857 394.257791 L 38.519177 394.311638 L 53.012894 380.078122 Z M 40.991953 379.862735 " transform="matrix(0.216419,0,0,0.217631,10.222303,-27.209022)"/>
<path d="M -36.007041 132.544179 L -36.007041 381.585834 L 389.797761 381.585834 L 389.797761 132.544179 Z M -28.336021 139.490422 L 382.036493 139.490422 L 382.036493 359.1317 L -28.336021 359.1317 Z M -28.336021 139.490422 " transform="matrix(0.216419,0,0,0.217631,10.222303,-27.209022)"/>
<path d="M -36.007041 132.544179 L -36.007041 381.585834 L 389.797761 381.585834 L 389.797761 132.544179 Z M -28.336021 139.490422 L 382.036493 139.490422 L 382.036493 359.1317 L -28.336021 359.1317 Z M -28.336021 139.490422 " transform="matrix(0.216419,0,0,0.217631,10.222303,-27.209022)"/>
<path d="M 319.260472 379.862735 L 336.082569 394.257791 L 321.733248 394.311638 L 307.221483 380.078122 Z M 319.260472 379.862735 " transform="matrix(0.216419,0,0,0.217631,10.222303,-27.209022)"/>
<path d="M 2.429688 51.476562 L 94.582031 51.476562 L 94.582031 55.835938 L 2.429688 55.835938 Z M 2.429688 51.476562 "/>
<path d="M 174.287213 370.134405 C 174.287213 368.626693 173.077899 367.406165 171.561744 367.406165 C 170.063639 367.406165 168.854325 368.626693 168.854325 370.134405 C 168.854325 371.624167 170.063639 372.844696 171.561744 372.844696 C 173.077899 372.844696 174.287213 371.624167 174.287213 370.134405 Z M 174.287213 370.134405 " transform="matrix(0.216419,0,0,0.217631,10.222303,-27.209022)"/>
</g>
</svg>
